{
	"asset":{
		"generator":"Khronos glTF Blender I/O v4.3.47",
		"version":"2.0"
	},
	"scene":0,
	"scenes":[
		{
			"name":"Scene",
			"nodes":[
				0,
				1,
				2,
				3,
				4,
				5,
				6
			]
		}
	],
	"nodes":[
		{
			"mesh":0,
			"name":"floor",
			"translation":[
				-2,
				1.8370691537857056,
				0
			]
		},
		{
			"mesh":1,
			"name":"wall_01",
			"translation":[
				-3.1875526905059814,
				1,
				6.771816253662109
			]
		},
		{
			"mesh":2,
			"name":"wall_02",
			"scale":[
				0.1893303245306015,
				1,
				1
			],
			"translation":[
				3,
				1,
				8.975042343139648
			]
		},
		{
			"mesh":3,
			"name":"ducts",
			"scale":[
				0.20268045365810394,
				0.20268045365810394,
				0.20268045365810394
			],
			"translation":[
				9.180068969726562,
				2.6943492889404297,
				9.286296844482422
			]
		},
		{
			"mesh":4,
			"name":"Cylinder.001",
			"rotation":[
				-0.5000000596046448,
				0.4999999403953552,
				-0.4999999403953552,
				0.5000000596046448
			],
			"translation":[
				-2.387847423553467,
				2.7701218128204346,
				-0.05656147003173828
			]
		},
		{
			"mesh":5,
			"name":"Cylinder.003",
			"rotation":[
				-0.5000000596046448,
				0.4999999403953552,
				-0.4999999403953552,
				0.5000000596046448
			],
			"translation":[
				9.342733383178711,
				2.3295156955718994,
				-0.045830726623535156
			]
		},
		{
			"mesh":6,
			"name":"Cylinder.002",
			"rotation":[
				-0.5000000596046448,
				0.4999999403953552,
				-0.4999999403953552,
				0.5000000596046448
			],
			"scale":[
				1,
				0.30000001192092896,
				1
			],
			"translation":[
				4.360222339630127,
				2.7701218128204346,
				-0.05656147003173828
			]
		}
	],
	"materials":[
		{
			"doubleSided":true,
			"name":"Material",
			"pbrMetallicRoughness":{
				"baseColorTexture":{
					"index":0
				},
				"metallicFactor":0,
				"roughnessFactor":0.5
			}
		}
	],
	"meshes":[
		{
			"name":"Plane",
			"primitives":[
				{
					"attributes":{
						"POSITION":0,
						"NORMAL":1,
						"TEXCOORD_0":2
					},
					"indices":3,
					"material":0
				}
			]
		},
		{
			"name":"Cube.001",
			"primitives":[
				{
					"attributes":{
						"POSITION":4,
						"NORMAL":5,
						"TEXCOORD_0":6
					},
					"indices":7
				}
			]
		},
		{
			"name":"Cube.002",
			"primitives":[
				{
					"attributes":{
						"POSITION":8,
						"NORMAL":9,
						"TEXCOORD_0":10
					},
					"indices":11
				}
			]
		},
		{
			"name":"Cube.007",
			"primitives":[
				{
					"attributes":{
						"POSITION":12,
						"NORMAL":13,
						"TEXCOORD_0":14
					},
					"indices":15
				}
			]
		},
		{
			"name":"Cylinder.001",
			"primitives":[
				{
					"attributes":{
						"POSITION":16,
						"NORMAL":17,
						"TEXCOORD_0":18
					},
					"indices":19
				}
			]
		},
		{
			"name":"Cylinder.003",
			"primitives":[
				{
					"attributes":{
						"POSITION":20,
						"NORMAL":21,
						"TEXCOORD_0":22
					},
					"indices":19
				}
			]
		},
		{
			"name":"Cylinder.004",
			"primitives":[
				{
					"attributes":{
						"POSITION":23,
						"NORMAL":24,
						"TEXCOORD_0":25
					},
					"indices":19
				}
			]
		}
	],
	"textures":[
		{
			"sampler":0,
			"source":0
		}
	],
	"images":[
		{
			"mimeType":"image/png",
			"name":"texture_08",
			"uri":"texture_08.png"
		}
	],
	"accessors":[
		{
			"bufferView":0,
			"componentType":5126,
			"count":20,
			"max":[
				12,
				1.2247127294540405,
				10
			],
			"min":[
				-8,
				-1.8370691537857056,
				-10
			],
			"type":"VEC3"
		},
		{
			"bufferView":1,
			"componentType":5126,
			"count":20,
			"type":"VEC3"
		},
		{
			"bufferView":2,
			"componentType":5126,
			"count":20,
			"type":"VEC2"
		},
		{
			"bufferView":3,
			"componentType":5123,
			"count":30,
			"type":"SCALAR"
		},
		{
			"bufferView":4,
			"componentType":5126,
			"count":252,
			"max":[
				2.825402021408081,
				2.061781883239746,
				3.2347252368927
			],
			"min":[
				-6.851195335388184,
				-1,
				-16.87441635131836
			],
			"type":"VEC3"
		},
		{
			"bufferView":5,
			"componentType":5126,
			"count":252,
			"type":"VEC3"
		},
		{
			"bufferView":6,
			"componentType":5126,
			"count":252,
			"type":"VEC2"
		},
		{
			"bufferView":7,
			"componentType":5123,
			"count":540,
			"type":"SCALAR"
		},
		{
			"bufferView":8,
			"componentType":5126,
			"count":372,
			"max":[
				37.23025894165039,
				2.061781883239746,
				1
			],
			"min":[
				-4.523202419281006,
				-1,
				-18.98246192932129
			],
			"type":"VEC3"
		},
		{
			"bufferView":9,
			"componentType":5126,
			"count":372,
			"type":"VEC3"
		},
		{
			"bufferView":10,
			"componentType":5126,
			"count":372,
			"type":"VEC2"
		},
		{
			"bufferView":11,
			"componentType":5123,
			"count":792,
			"type":"SCALAR"
		},
		{
			"bufferView":12,
			"componentType":5126,
			"count":1340,
			"max":[
				1.1055052280426025,
				5.4842963218688965,
				5.050725936889648
			],
			"min":[
				-25.881757736206055,
				-1.2116812467575073,
				-28.377613067626953
			],
			"type":"VEC3"
		},
		{
			"bufferView":13,
			"componentType":5126,
			"count":1340,
			"type":"VEC3"
		},
		{
			"bufferView":14,
			"componentType":5126,
			"count":1340,
			"type":"VEC2"
		},
		{
			"bufferView":15,
			"componentType":5123,
			"count":2316,
			"type":"SCALAR"
		},
		{
			"bufferView":16,
			"componentType":5126,
			"count":96,
			"max":[
				0.13052305579185486,
				10.165518760681152,
				0.22369888424873352
			],
			"min":[
				-0.13052305579185486,
				-10.165513038635254,
				-0.22369885444641113
			],
			"type":"VEC3"
		},
		{
			"bufferView":17,
			"componentType":5126,
			"count":96,
			"type":"VEC3"
		},
		{
			"bufferView":18,
			"componentType":5126,
			"count":96,
			"type":"VEC2"
		},
		{
			"bufferView":19,
			"componentType":5123,
			"count":168,
			"type":"SCALAR"
		},
		{
			"bufferView":20,
			"componentType":5126,
			"count":96,
			"max":[
				0.16104598343372345,
				10.206489562988281,
				0.10000039637088776
			],
			"min":[
				-0.10000000149011612,
				-10.124543190002441,
				-0.3473978340625763
			],
			"type":"VEC3"
		},
		{
			"bufferView":21,
			"componentType":5126,
			"count":96,
			"type":"VEC3"
		},
		{
			"bufferView":22,
			"componentType":5126,
			"count":96,
			"type":"VEC2"
		},
		{
			"bufferView":23,
			"componentType":5126,
			"count":96,
			"max":[
				0.13052305579185486,
				23.19216537475586,
				0.22369904816150665
			],
			"min":[
				-0.13052305579185486,
				-10.165513038635254,
				-0.22369885444641113
			],
			"type":"VEC3"
		},
		{
			"bufferView":24,
			"componentType":5126,
			"count":96,
			"type":"VEC3"
		},
		{
			"bufferView":25,
			"componentType":5126,
			"count":96,
			"type":"VEC2"
		}
	],
	"bufferViews":[
		{
			"buffer":0,
			"byteLength":240,
			"byteOffset":0,
			"target":34962
		},
		{
			"buffer":0,
			"byteLength":240,
			"byteOffset":240,
			"target":34962
		},
		{
			"buffer":0,
			"byteLength":160,
			"byteOffset":480,
			"target":34962
		},
		{
			"buffer":0,
			"byteLength":60,
			"byteOffset":640,
			"target":34963
		},
		{
			"buffer":0,
			"byteLength":3024,
			"byteOffset":700,
			"target":34962
		},
		{
			"buffer":0,
			"byteLength":3024,
			"byteOffset":3724,
			"target":34962
		},
		{
			"buffer":0,
			"byteLength":2016,
			"byteOffset":6748,
			"target":34962
		},
		{
			"buffer":0,
			"byteLength":1080,
			"byteOffset":8764,
			"target":34963
		},
		{
			"buffer":0,
			"byteLength":4464,
			"byteOffset":9844,
			"target":34962
		},
		{
			"buffer":0,
			"byteLength":4464,
			"byteOffset":14308,
			"target":34962
		},
		{
			"buffer":0,
			"byteLength":2976,
			"byteOffset":18772,
			"target":34962
		},
		{
			"buffer":0,
			"byteLength":1584,
			"byteOffset":21748,
			"target":34963
		},
		{
			"buffer":0,
			"byteLength":16080,
			"byteOffset":23332,
			"target":34962
		},
		{
			"buffer":0,
			"byteLength":16080,
			"byteOffset":39412,
			"target":34962
		},
		{
			"buffer":0,
			"byteLength":10720,
			"byteOffset":55492,
			"target":34962
		},
		{
			"buffer":0,
			"byteLength":4632,
			"byteOffset":66212,
			"target":34963
		},
		{
			"buffer":0,
			"byteLength":1152,
			"byteOffset":70844,
			"target":34962
		},
		{
			"buffer":0,
			"byteLength":1152,
			"byteOffset":71996,
			"target":34962
		},
		{
			"buffer":0,
			"byteLength":768,
			"byteOffset":73148,
			"target":34962
		},
		{
			"buffer":0,
			"byteLength":336,
			"byteOffset":73916,
			"target":34963
		},
		{
			"buffer":0,
			"byteLength":1152,
			"byteOffset":74252,
			"target":34962
		},
		{
			"buffer":0,
			"byteLength":1152,
			"byteOffset":75404,
			"target":34962
		},
		{
			"buffer":0,
			"byteLength":768,
			"byteOffset":76556,
			"target":34962
		},
		{
			"buffer":0,
			"byteLength":1152,
			"byteOffset":77324,
			"target":34962
		},
		{
			"buffer":0,
			"byteLength":1152,
			"byteOffset":78476,
			"target":34962
		},
		{
			"buffer":0,
			"byteLength":768,
			"byteOffset":79628,
			"target":34962
		}
	],
	"samplers":[
		{
			"magFilter":9729,
			"minFilter":9987
		}
	],
	"buffers":[
		{
			"byteLength":80396,
			"uri":"alien_i.bin"
		}
	]
}
